<?xml version="1.0" encoding="utf-8"?>
<!-- Generator: Adobe Illustrator 21.1.0, SVG Export Plug-In . SVG Version: 6.00 Build 0)  -->
<svg version="1.1" xmlns="http://www.w3.org/2000/svg" xmlns:xlink="http://www.w3.org/1999/xlink" x="0px" y="0px"
	 viewBox="0 0 49.143 51.436" enable-background="new 0 0 49.143 51.436" xml:space="preserve">
<g id="horizotal-bar">
</g>
<g id="verticle-bar">
</g>
<g id="hike">
</g>
<g id="node">
</g>
<g id="wave">
</g>
<g id="block">
</g>
<g id="piller">
</g>
<g id="graph_1_">
</g>
<g id="chart">
</g>
<g id="white-board">
</g>
<g id="statistics">
</g>
<g id="paraboal-s">
</g>
<g id="parabola">
</g>
<g id="graph-smooth">
</g>
<g id="graph-up">
</g>
<g id="graph-y">
</g>
<g id="graph-2">
</g>
<g id="graph">
</g>
<g id="part">
</g>
<g id="fill">
</g>
<g id="cross-2">
</g>
<g id="cross">
</g>
<g id="chart-7">
</g>
<g id="chart-6">
</g>
<g id="chart-4">
</g>
<g id="round-chart2">
</g>
<g id="round-chart">
</g>
<g id="community-3">
</g>
<g id="community_1_">
</g>
<g id="old-hairstylr">
</g>
<g id="girl-hair">
</g>
<g id="small-hair">
</g>
<g id="round-hair">
</g>
<g id="girl-2">
</g>
<g id="boy">
</g>
<g id="girl">
</g>
<g id="men">
</g>
<g id="women">
</g>
<g id="male_1_">
</g>
<g id="male-female">
</g>
<g id="group-m">
</g>
<g id="group-f">
</g>
<g id="male-1">
</g>
<g id="male">
</g>
<g id="read-f">
</g>
<g id="read-m">
</g>
<g id="message-f">
</g>
<g id="message-m">
</g>
<g id="chat-f">
</g>
<g id="chat-m">
</g>
<g id="think-f">
</g>
<g id="think-m">
</g>
<g id="comment-f">
</g>
<g id="comment-m">
</g>
<g id="unloack-rd">
</g>
<g id="user-rd">
</g>
<g id="favorite-rd">
</g>
<g id="reload-rd">
</g>
<g id="bookmark-rd">
</g>
<g id="success-rd">
</g>
<g id="dealete">
</g>
<g id="remove-user_1_">
</g>
<g id="add-user_1_">
</g>
<g id="user-round">
</g>
<g id="upload">
</g>
<g id="download">
</g>
<g id="move">
</g>
<g id="unview">
</g>
<g id="notify">
</g>
<g id="settings">
</g>
<g id="cloud">
</g>
<g id="favorite">
</g>
<g id="reload">
</g>
<g id="bookmark">
</g>
<g id="contact">
</g>
<g id="call">
</g>
<g id="vie">
</g>
<g id="mail">
</g>
<g id="date">
</g>
<g id="trash">
</g>
<g id="time">
</g>
<g id="star">
</g>
<g id="unlock">
</g>
<g id="lock-user">
</g>
<g id="reload-user">
</g>
<g id="refresh-user">
</g>
<g id="search-user">
</g>
<g id="edit-user">
</g>
<g id="success">
</g>
<g id="delete-user">
</g>
<g id="remove-user">
</g>
<g id="add-user">
</g>
<g id="user">
	<path fill="#FFFFFF" d="M24.809,30.918c-5.285,0-8.976-6.333-9.868-8.938c-0.044-0.027-0.092-0.056-0.138-0.085
		c-0.349-0.216-0.579-0.359-0.733-0.633c-1.275-2.256-1.611-4.064-0.998-5.375c0.29-0.619,0.725-0.998,1.112-1.226
		c0-0.978,0.074-2.818,0.547-4.605c0.019-0.072,1.916-6.761,10.079-6.761c8.163,0,10.059,6.689,10.078,6.756
		c0.474,1.791,0.548,3.631,0.548,4.61c0.387,0.229,0.822,0.607,1.111,1.226c0.613,1.311,0.277,3.119-0.997,5.375
		c-0.156,0.274-0.386,0.417-0.734,0.634c-0.046,0.029-0.094,0.057-0.138,0.085C33.786,24.584,30.093,30.918,24.809,30.918z
		 M15.716,20.108c0.043,0.027,0.093,0.057,0.143,0.088c0.436,0.271,0.781,0.485,0.907,0.921c0.476,1.653,3.695,7.8,8.044,7.8
		c4.348,0,7.568-6.148,8.044-7.799c0.126-0.438,0.471-0.651,0.907-0.922c0.05-0.031,0.099-0.061,0.143-0.088
		c1.155-2.107,0.976-3.043,0.843-3.351c-0.158-0.364-0.491-0.454-0.529-0.463c-0.468-0.113-0.819-0.552-0.793-1.033
		c0.001-0.024,0.123-2.46-0.469-4.694c-0.058-0.207-1.55-5.272-8.145-5.272c-6.648,0-8.132,5.224-8.146,5.277
		c-0.593,2.241-0.468,4.665-0.467,4.689c0.027,0.502-0.323,0.947-0.817,1.038c-0.014,0.004-0.347,0.094-0.505,0.458
		C14.739,17.066,14.562,18.001,15.716,20.108z"/>
	<path fill="#FFFFFF" d="M24.809,47.409c-11.963,0-20.625-1.835-20.71-1.854c-0.478-0.103-0.812-0.537-0.789-1.025
		c0.455-9.559,6.409-12.526,10.848-13.926c3.438-1.086,5.237-2.84,5.255-2.858c0.392-0.388,1.026-0.386,1.414,0.007
		c0.389,0.392,0.386,1.025-0.007,1.414c-0.086,0.086-2.166,2.115-6.06,3.344c-4.295,1.356-8.731,3.763-9.394,11.253
		c2.425,0.446,9.841,1.645,19.443,1.645c9.614,0,17.02-1.198,19.443-1.644c-0.662-7.49-5.098-9.898-9.393-11.253
		c-3.895-1.229-5.974-3.258-6.06-3.344c-0.393-0.389-0.396-1.022-0.007-1.414c0.388-0.393,1.019-0.396,1.412-0.009
		c0.024,0.023,1.858,1.787,5.257,2.86c4.438,1.4,10.392,4.368,10.847,13.926c0.023,0.488-0.31,0.922-0.788,1.025
		C45.434,45.574,36.773,47.409,24.809,47.409z"/>
</g>
<g id="block-user">
</g>
<g id="boy-1">
</g>
<g id="community">
</g>
<g id="love-people">
</g>
<g id="chart-5">
</g>
<g id="graph-top">
</g>
<g id="graph-node">
</g>
<g id="Layer_101">
</g>
</svg>
